<svg xmlns="http://www.w3.org/2000/svg" viewBox="0 0 1089.08 349.33"><g id="Layer_2" data-name="Layer 2"><g id="Layer_1-2" data-name="Layer 1">
<path class="level-2 under" d="M1089.08,349.33H857.42V302.45h231.66Z" >
    <animate 
      attributeType="XML"
            attributeName="fill"
            values="#F1B631;#F1B631;transparent;transparent"
            
            dur="1s"
            repeatCount="indefinite"/>
    
</path>
<path class="om" d="M346.31,253.26c-7.07,1.23-3-4.88-5-7.47h-6.6c.56,10.88,1.1,21.49,1.68,32.92l-14.91-1.44c.26,2.07.87,3.87.56,5.49-.27,1.33-1.61,3.48-2.51,3.5a93,93,0,0,1-12.34-.92,3.19,3.19,0,0,1-2.24-1.75c-2.68-9-7-17.94-7.37-27-.55-12.62-2.15-25.57,2-38.18,1.29-4,.44-8.6.53-12.93a1.85,1.85,0,0,0-.42-1.37c-6.3-4.21-4.93-10.77-5.08-16.76q-.94-36.88-1.6-73.77c0-1.52,1.13-3,1.59-4.2-.67-4.33-1.86-8.75-1.93-13.17-.24-15.46-.2-30.93,0-46.39.06-5.84-.86-12.4,6.89-14.88.46-.15.79-1.37.81-2.1.08-3.46,0-6.93,0-10.59-1.51-.19-3.12.07-3.63-.56-.85-1.05-1-2.67-1.43-4C300,16.66,298,13,298,10.45A95,95,0,0,0,296.8.57c4.22-1.51,6.62.06,7.4,3.69,1.41,6.46,2.46,13,3.62,19.53.84,4.66,1.76,9.32,2.32,14,.23,1.87-.58,3.84-.64,5.77a29.35,29.35,0,0,0,.56,4.53l2.19-.22V32.83c0-4.49-.14-9,.09-13.46.07-1.31,1.22-2.57,1.88-3.85.71,1.2,1.75,2.32,2,3.61.36,1.57.09,3.29.09,5.36l5.82-1.23c2.06,13,4.1,26,6.22,39.43,6.29-1.42,3.53,5.63,7.59,8.11,0-2.57.07-4.44,0-6.29q-.9-22.17-1.86-44.34c-.12-2.69-.39-6,3.23-5.89,1.44.06,3.75,3.2,4,5.12,1.2,10.87,1.9,21.79,2.71,32.71.16,2.07,0,4.16,0,7.39,2.71-1.79,4.47-2.89,6.16-4.09C369,42.08,388.49,30.13,411.32,24.78a74.36,74.36,0,0,1,34.12-.29c14.48,3.36,24.35,12.34,29.77,25.58,5.31-5.35,10-11.31,15.86-15.8,33.43-25.73,81.39-9.58,92.66,31.65,3.28,12,4.44,24.89,4.53,37.38.43,64.84.2,129.68.19,194.52,0,1.32-.11,2.64-.19,4.31H531.82v-6.4q0-95.27-.08-190.53A70.11,70.11,0,0,0,529.86,88a20.49,20.49,0,0,0-6.25-9.82c-12.45-10.63-33.48-6-40.36,8.81a21.26,21.26,0,0,0-1.47,8.68q-.12,100-.06,200v6.59H426.15v-5.86c0-64.84.08-129.68-.14-194.52,0-6-1.81-12-3.07-18-.54-2.56-2.54-4-5.28-3-6.36,2.27-13.11,3.92-18.88,7.25-12.67,7.32-22.61,18-32.23,28.84a9.92,9.92,0,0,0-1.11,1.65c-4.93,8.73-5.17,8.91-15.42,11.62V144.4c0,10.38-.69,20.81.18,31.11,1,12-1,23.9-.29,35.86.11,1.85-1.26,3.79-1.71,5.06-.7,12.64-1.37,24.82-2,37ZM347,80.17c7.73-13.42,20-20.52,29.78-30.13-11.17,5.61-21.42,12.27-28.31,23.13-2.37,3.73-2.83,7.17.75,11.23l3.58-3.12-.82-1.11Zm20.31,29.22c-1.64-.12-3.91-1-4.84-.23-5.51,4.51-7.93,10.83-9.36,17.61ZM300,39.88l-1.37.12c1.66,5.14-6,9.21-.78,15l3.86-2Z"/>
<path class="om" d="M115.1,13.73l-12.17,5.85.06,1.25c1.75.13,3.59.64,5.26.32,12.19-2.31,24.36-4.78,36.5-8.28H117.87L117.44,11c2.42-.87,4.81-2.4,7.25-2.5,8.31-.32,17.66-2.6,24.74.35,15.28,6.38,31.5,4.4,46.88,8.24l9.47,2.38L207,13.33c3.29,1.65,6.49,2.85,9.23,4.71Q228,26,239.37,34.48A25.59,25.59,0,0,1,246,41c5.09,8.16,9.81,16.55,14.55,24.93,1.7,3,2.08,6.42-1.72,8s-5.43-1.13-6.89-4.41c-2.54-5.75-5.5-11.34-8.56-16.85C234,35.77,219.4,27.21,200.34,25c-22.45-2.66-44.88-2.5-67.34-.91-2.4.17-4.72,1.57-7.08,2.4l.35,1.45c4.65-.41,9.28-.91,13.93-1.2,22.67-1.44,45.27-1.78,67.42,4.51,4.78,1.36,9.77,2.47,12.45,8.17-1.85,0-3.65.41-5.16-.07-6.16-2-12.22-4.25-18.36-6.27-1.2-.39-2.63-.08-4-.1.44,1.33.89,2.66,1.75,5.24-2.94.27-6.44,1.33-9.64.76-26.38-4.74-51.44,1-76.23,9.15-4.72,1.54-9.31,3.52-13.93,5.39a24.75,24.75,0,0,0-3.36,2.15l4.72.77a7.33,7.33,0,0,1-1,1.72c-9.09,7.79-18.4,15.35-27.24,23.42C63.87,85,61,89.34,58,93.51c-.59.83.23,2.67,1.05,4C78,64.74,108.32,53,143.22,50.27c16.52-1.28,33.28-.69,49.86.23,6.32.35,13.82,1.14,17.89,7.78C212,60,212,62.19,212.75,65c-6.95-1.87-12.72-2.88-18.07-5-13-5.09-26.33-4.61-39.75-3-20.25,2.42-40.19,6.15-57.83,17.16-6.61,4.12-12.5,9.38-19,13.7-5.69,3.78-8.07,9.5-10.46,15.36-.5,1.2-.84,3-1.76,3.42-6.88,3.23-6.42,9.75-7.28,15.62-2.15,14.66-4,29.42-.5,44.07,3.66,15.28,8.51,30,20.29,41.58C84.7,214.1,90,220.38,98.77,224.5c11.76,5.52,23.82,9.13,36.11,12.47,4.86,1.32,10,2.93,15.06,0a2.76,2.76,0,0,1,1.92,0c6.86,2.07,13.37.22,19.31-2.74,8.46-4.21,16.59-9.11,24.64-14.07,4.51-2.77,8.9-5.38,11.1-11.2,2.48-6.57,7.17-12.28,10.49-18.58,1.59-3,2.82-6.44.24-9.88-.47-.62,0-2.12.32-3.12.86-2.68,2.23-5.24,2.71-8,.29-1.67-.67-3.57-1.06-5.37l-1.33.06,4.62-5.34c-1.53-5.1-2.77-9.21-4-13.33l2.12-.76c5.67,4.06,4.72,10.84,5.62,16.86,6,.55,6.54.28,6.31-5.41-.69-17.56-5.44-34.34-10.25-51.09-1.69-5.89-3.37-11.81-5.55-17.54-1.64-4.31-1.29-7.26,3.36-9a16.15,16.15,0,0,0,3.22-2.32L228.8,86.9l1.27-.4q-3.56-17.28-7.1-34.58c4.12-1,9.46,1.59,11.4,5.18a6.07,6.07,0,0,0,4.2,2.62c3.08.28,4.08,1.56,4.67,4.54a63.57,63.57,0,0,0,5.69,16.42c.08-.8.17-1.6.42-3.92,2,2.19,3.84,3.45,4.6,5.19a189.21,189.21,0,0,1,15.95,70.42c.05,1.83-.07,3.66,0,5.49,2.85,50.47-20.17,87.62-59.68,116.65-13.45,9.89-27.52,16.54-44.59,17.54-20.57,1.21-40.76,1.36-60.84-4.49-36.92-10.74-65-32.72-85-65.14C11.23,208.55,7.16,192.9,3.73,177.17-2.93,146.64-1,116.81,12,88,25.15,58.92,48,39.73,75.63,25c10.79-5.75,21.63-10.77,33.86-12.31a26.74,26.74,0,0,1,2.94-.34C112.85,12.37,113.27,12.77,115.1,13.73Z"/>
<path class="level-2" d="M726.61,91.93c-21.15.07-36.63-9.73-42-27.09-7.86-25.59,5-56.18,40.1-56.61a60.73,60.73,0,0,1,19.6,2.66c19.83,6.57,30,25.5,26.57,47.83-2.89,18.74-19.23,32.55-39.3,33.21C730,92,728.28,91.93,726.61,91.93Z"/>
<path class="level-2" d="M726.77,307.41c-21,.11-36.18-9.37-41.89-26.48-8.15-24.44,3.57-56.65,39.7-57.22a60.77,60.77,0,0,1,19.61,2.58c19.86,6.5,30,25.27,26.74,47.75-2.74,18.67-19.17,32.67-39.16,33.36C730.11,307.46,728.44,307.41,726.77,307.41Z"/>
<path d="M197.92,63.45c2.57,2.53,4.73,3.69,5.28,5.37,3.14,9.57,5.91,19.27,8.74,28.94.15.49-.31,1.16-1.28,2a155.77,155.77,0,0,1-13.81-29.44C196.34,68.85,197.35,66.82,197.92,63.45Z"/>
<path d="M346.16,253.42c.59.46,1.67.9,1.7,1.4.65,10.39,1.18,20.79,1.75,31.51l-5.61.31c0-4.52.09-8.78,0-13-.09-3.15.3-6.62-.87-9.37-2.08-4.9,0-7.93,3.2-11Z"/>
<path d="M219.1,141.54c-2.48-11.75-5-23.51-7.62-36.07,6.72,3.16,12.34,28.45,9.12,36Z"/></g></g></svg>